<?xml version="1.0" encoding="UTF-8"?>
<svg id="Layer_2" data-name="Layer 2" xmlns="http://www.w3.org/2000/svg" viewBox="0 0 682.96 123.49">
  <defs>
    <style>
      .cls-1 {
        fill: #e61e25;
      }

      .cls-2 {
        fill: #00aeef;
      }

      .cls-3 {
        fill: #f2fafb;
      }

      .cls-4 {
        fill: #e11f26;
      }

      .cls-5 {
        fill: #2e3192;
      }

      .cls-6 {
        fill: #fde100;
      }

      .cls-7 {
        fill: #444544;
      }

      .cls-8 {
        fill: #2b3990;
      }

      .cls-9 {
        fill: #7f7f7f;
      }

      .cls-10 {
        fill: #1c75bc;
      }
    </style>
  </defs>
  <g id="Layer_1-2" data-name="Layer 1">
    <g>
      <g>
        <g>
          <path class="cls-8" d="m201.35,72.06v-35.95l-14.47,35.95h-4.77l-14.47-35.95v35.95h-10.93V20.71h15.32l12.47,31.03,12.47-31.03h15.4v51.35h-11.01Z"/>
          <path class="cls-8" d="m236.84,72.06v-21.02l-19.78-30.33h12.47l12.78,20.63,12.63-20.63h12.47l-19.63,30.33v21.02h-10.93Z"/>
          <path class="cls-8" d="m267.17,64.83l5.93-8.31c3.62,3.77,9.24,6.93,16.32,6.93,6,0,8.93-2.77,8.93-5.7,0-9.08-29.56-2.85-29.56-22.17,0-8.55,7.39-15.63,19.48-15.63,8.16,0,14.93,2.46,20.02,7.16l-6.08,8.01c-4.16-3.85-9.7-5.62-14.93-5.62-4.7,0-7.31,2.08-7.31,5.16,0,8.16,29.48,2.69,29.48,21.86,0,9.39-6.7,16.47-20.55,16.47-9.85,0-16.94-3.31-21.71-8.16Z"/>
          <path class="cls-8" d="m327.68,72.06V30.34h-15.01v-9.62h40.96v9.62h-14.93v41.72h-11.01Z"/>
          <path class="cls-8" d="m360.63,72.06V20.71h10.93v51.35h-10.93Z"/>
          <path class="cls-8" d="m379.26,46.43c0-15.78,11.93-26.56,27.33-26.56,11.32,0,17.86,6.16,21.48,12.55l-9.39,4.62c-2.16-4.16-6.78-7.47-12.09-7.47-9.31,0-16.09,7.16-16.09,16.86s6.78,16.86,16.09,16.86c5.31,0,9.93-3.23,12.09-7.47l9.39,4.54c-3.7,6.39-10.16,12.63-21.48,12.63-15.4,0-27.33-10.78-27.33-26.56Z"/>
          <path class="cls-8" d="m489.73,72.06l-24.48-33.49v33.49h-10.93V20.71h11.24l23.79,32.26V20.71h10.93v51.35h-10.55Z"/>
          <path class="cls-8" d="m510.44,72.06V20.71h36.34v9.62h-25.41v10.85h24.87v9.62h-24.87v11.62h25.41v9.62h-36.34Z"/>
          <path class="cls-8" d="m555.32,72.06V20.71h24.02c11.16,0,17.24,7.54,17.24,16.55s-6.16,16.55-17.24,16.55h-13.09v18.25h-10.93Zm30.1-34.8c0-4.31-3.23-6.93-7.54-6.93h-11.62v13.86h11.62c4.31,0,7.54-2.69,7.54-6.93Z"/>
          <path class="cls-8" d="m633.07,72.06l-3.16-8.7h-22.02l-3.23,8.7h-12.47l19.86-51.35h13.7l19.79,51.35h-12.47Zm-14.17-40.42l-8.01,22.09h16.01l-8.01-22.09Z"/>
          <path class="cls-8" d="m650.32,72.06V20.71h10.93v41.73h21.71v9.62h-32.64Z"/>
        </g>
        <g>
          <path class="cls-10" d="m174.39,103.23l-1.37-3.76h-9.53l-1.4,3.76h-5.4l8.59-22.22h5.93l8.56,22.22h-5.4Zm-6.13-17.49l-3.46,9.56h6.93l-3.46-9.56Z"/>
          <path class="cls-10" d="m223.15,103.23v-22.22h8.76c6.96,0,11.79,4.43,11.79,11.13s-4.83,11.09-11.79,11.09h-8.76Zm15.72-11.09c0-3.93-2.4-6.96-6.96-6.96h-4.03v13.89h4.03c4.4,0,6.96-3.16,6.96-6.93Z"/>
          <path class="cls-10" d="m293.94,103.23l-8.59-22.22h5.4l6.16,17.09,6.13-17.09h5.4l-8.56,22.22h-5.93Z"/>
          <path class="cls-10" d="m351.8,103.23v-22.22h15.72v4.16h-10.99v4.7h10.76v4.16h-10.76v5.03h10.99v4.16h-15.72Z"/>
          <path class="cls-10" d="m427.84,103.23l-10.59-14.49v14.49h-4.73v-22.22h4.86l10.29,13.96v-13.96h4.73v22.22h-4.56Z"/>
          <path class="cls-10" d="m483.23,103.23v-18.05h-6.5v-4.16h17.72v4.16h-6.46v18.05h-4.76Z"/>
          <path class="cls-10" d="m538.79,94.37v-13.36h4.8v13.19c0,3.1,1.8,5.23,5.23,5.23s5.2-2.13,5.2-5.23v-13.19h4.83v13.32c0,5.53-3.26,9.29-10.03,9.29s-10.03-3.8-10.03-9.26Z"/>
          <path class="cls-10" d="m617.07,103.23l-4.36-7.89h-3.46v7.89h-4.73v-22.22h10.39c4.63,0,7.46,3.03,7.46,7.16s-2.46,6.03-4.86,6.6l5,8.46h-5.43Zm.47-15.06c0-1.86-1.43-3-3.33-3h-4.96v6h4.96c1.9,0,3.33-1.13,3.33-3Z"/>
          <path class="cls-10" d="m667.23,103.23v-22.22h15.72v4.16h-10.99v4.7h10.76v4.16h-10.76v5.03h10.99v4.16h-15.72Z"/>
        </g>
      </g>
      <g>
        <path class="cls-2" d="m99.18,75.97c-.91,2.96-2.16,5.92-3.72,8.85l-4.19-4.26c-1.19-1.21-2.7-1.98-4.34-2.22.89-1.84,1.62-3.67,2.18-5.49,1.13-3.64,1.6-7.24,1.41-10.71-.38-6.74-3.34-13.06-8.57-18.29-4.99-4.98-11.61-7.73-18.67-7.73s-13.68,2.74-18.67,7.73c-5.22,5.23-8.19,11.56-8.57,18.29-.19,3.46.28,7.07,1.41,10.71.56,1.82,1.3,3.66,2.18,5.49-1.63.25-3.14,1.02-4.32,2.22l-4.2,4.27c-1.57-2.93-2.81-5.9-3.73-8.85-1.51-4.84-2.13-9.69-1.87-14.41.52-9.37,4.54-18.07,11.63-25.16,6.97-6.97,16.25-10.82,26.12-10.82s19.15,3.84,26.12,10.82c7.09,7.09,11.11,15.79,11.63,25.16.27,4.72-.36,9.57-1.87,14.41Z"/>
        <path class="cls-2" d="m126.59,63.3c0,14.39-4.81,28.14-13.67,39.28l-7.46-7.59c6.86-9.09,10.58-20.14,10.58-31.69,0-29.08-23.66-52.74-52.74-52.74S10.55,34.21,10.55,63.3c0,11.55,3.72,22.6,10.59,31.69l-7.47,7.59C4.81,91.43,0,77.69,0,63.3,0,46.39,6.58,30.5,18.54,18.54,30.49,6.59,46.39,0,63.3,0s32.81,6.59,44.76,18.54c11.96,11.96,18.54,27.85,18.54,44.76Z"/>
        <path class="cls-5" d="m122.71,123.49h-10.92l-25.17-25.58c-7.56,9.98-18.18,23.04-18.31,23.2-1.23,1.52-3.06,2.39-5.02,2.39s-3.79-.87-5.02-2.39c-.13-.16-10.75-13.22-18.31-23.21l-25.17,25.59H3.89c-1.44,0-2.17-1.74-1.16-2.77l14.16-14.4,7.4-7.52,9.43-9.59,5.12-5.2c.56-.57,1.29-.84,2.01-.84.89,0,1.78.42,2.34,1.24l.02.03c1.06,1.58,2.53,3.6,4.24,5.86,4.98,6.65,11.88,15.3,15.85,20.24,3.97-4.93,10.86-13.58,15.85-20.23,1.7-2.26,3.17-4.29,4.24-5.87l.03-.04c.55-.82,1.44-1.23,2.33-1.23.71,0,1.42.26,1.98.81.01,0,.02.01.04.03l5.11,5.21,9.43,9.59,7.4,7.52,14.17,14.4c1.01,1.03.28,2.77-1.16,2.77Z"/>
        <g>
          <g>
            <g>
              <path class="cls-4" d="m59.05,66.64c-.91-.15-1.87-.04-2.74.05-.17.02-.33.04-.48.05-.73.08-1.47.21-2.18.35-1.52.3-2.96.57-4.42.25-.19-.04-.38-.09-.57-.16-.83-.28-1.65-.82-2.52-1.65-.31-.3-.61-.63-.9-.94-.54-.58-1.1-1.19-1.77-1.69-.51-.38-1.03-.66-1.57-.84.98-.36,2.33-.77,3.67-.87.89-.07,1.77,0,2.53.31h0c.25.09.47.21.69.36.3.21.6.38.9.51-.34.22-.57.6-.57,1.04,0,.68.55,1.23,1.23,1.23s1.23-.55,1.23-1.23c0-.16-.03-.3-.08-.44.72.14,1.44.17,2.11.19.18,0,.35,0,.53,0,.81,0,1.55.02,2.22.17.36.08.7.2,1.02.38.58.33,1.06.85,1.39,1.52.17.35.22.72.28,1.4Z"/>
              <path d="m57.97,62.01c-.4-.19-.88-.24-1.36-.25-.18,0-.36,0-.53,0-.13,0-.26,0-.39,0h-.29c-.72,0-1.45,0-2.19-.11-.31-.04-.62-.11-.92-.2-.66-.2-1.25-.52-1.82-.84-.21-.12-.43-.24-.65-.35h0s-.02,0-.03-.01c-.87-.44-1.76-.63-2.65-.59-.42.02-.85.1-1.27.22-.5.14-.99.34-1.48.55.44-.08.9-.13,1.35-.15,1.05-.05,2.1.08,3.01.52.19.09.38.2.55.32,1.39.95,2.79,1.1,4.17,1.14.22,0,.45,0,.68.01.83,0,1.64.02,2.4.19.43.09.85.24,1.26.47.52.29.97.7,1.33,1.2-.1-.92-.4-1.75-1.18-2.12Z"/>
              <path d="m58.35,61.21c-.57-.28-1.21-.34-1.81-.34-.17,0-.32,0-.48,0-.13,0-.25,0-.38,0h-.29c-1.01,0-1.95,0-2.86-.27-.57-.17-1.09-.46-1.64-.76-.24-.13-.47-.26-.72-.38-1.01-.51-2.05-.74-3.1-.68-.25.01-.5.04-.74.08-1.08.19-2.1.65-3.07,1.12-1.22.58-2.46,1.18-3.43,2.15-.2.2-.37.43-.54.66,1.23-.38,2.64.1,3.64.84.61.45,1.11,1,1.65,1.58.3.33.61.66.94.98.96.92,1.89,1.53,2.85,1.85.21.07.44.13.67.18.52.11,1.04.16,1.56.16,1.1,0,2.17-.21,3.22-.41.69-.13,1.4-.27,2.1-.34.16-.01.33-.04.49-.05.94-.1,1.91-.21,2.75,0,0,0,.42.08.78.29.04-.45.1-1.22.11-1.49v-.28c.07-1.59.16-4-1.7-4.89Zm-2.04,5.48c-.17.02-.33.04-.48.05-.73.08-1.47.21-2.18.35-1.52.3-2.96.57-4.42.25-.19-.04-.38-.09-.57-.16-.83-.28-1.65-.82-2.52-1.65-.31-.3-.61-.63-.9-.94-.54-.58-1.1-1.19-1.77-1.69-.51-.38-1.03-.66-1.57-.84.98-.36,2.33-.77,3.67-.87.89-.07,1.77,0,2.53.31h0c.25.09.47.21.69.36.3.21.6.38.9.51-.34.22-.57.6-.57,1.04,0,.68.55,1.23,1.23,1.23s1.23-.55,1.23-1.23c0-.16-.03-.3-.08-.44.72.14,1.44.17,2.11.19.18,0,.35,0,.53,0,.81,0,1.55.02,2.22.17.36.08.7.2,1.02.38.58.33,1.06.85,1.39,1.52.17.35.22.72.28,1.4-.91-.15-1.87-.04-2.74.05Zm1.5-3.76c-.41-.23-.83-.37-1.26-.47-.76-.17-1.57-.18-2.4-.19-.22,0-.45,0-.68-.01-1.38-.04-2.78-.18-4.17-1.14-.18-.12-.36-.23-.55-.32-.91-.44-1.96-.57-3.01-.52-.46.02-.91.08-1.35.15.48-.22.97-.42,1.48-.55.42-.12.85-.2,1.27-.22.89-.04,1.78.15,2.65.59,0,0,.02,0,.03.01h0c.22.11.44.23.65.35.57.31,1.16.64,1.82.84.3.09.61.15.92.2.73.11,1.47.11,2.19.11h.29c.13,0,.25,0,.39,0,.17,0,.35,0,.53,0,.49,0,.97.06,1.36.25.78.38,1.08,1.21,1.18,2.12-.36-.51-.81-.91-1.33-1.2Z"/>
              <path d="m39.65,60.23s15.64-13.47,22.15,2.68c0,0-6.96-10.73-22.15-2.68Z"/>
              <path class="cls-3" d="m56.36,63.34c-.7,2.25-2.8,3.89-5.28,3.89-3.05,0-5.53-2.48-5.53-5.53,0-.17,0-.34.02-.51.89-.07,1.77,0,2.53.31h0c.25.09.47.21.69.36.3.21.6.38.9.51-.34.22-.57.6-.57,1.04,0,.68.55,1.23,1.23,1.23s1.23-.55,1.23-1.23c0-.16-.03-.3-.08-.44.72.14,1.44.17,2.11.19.18,0,.35,0,.53,0,.81,0,1.55.02,2.22.17Z"/>
              <path class="cls-6" d="m53.61,63.17c0,1.65-1.35,2.98-3,2.98s-3-1.34-3-3c0-.61.18-1.17.49-1.65h0c.25.09.47.21.69.36.3.21.6.38.9.51-.34.22-.57.6-.57,1.04,0,.68.55,1.23,1.23,1.23s1.23-.55,1.23-1.23c0-.16-.03-.3-.08-.44.72.14,1.44.17,2.11.19Z"/>
              <path class="cls-9" d="m59.15,64.14c-.36-.51-.81-.91-1.33-1.2-.41-.23-.83-.37-1.26-.47-.76-.17-1.57-.18-2.4-.19-.22,0-.45,0-.68-.01-1.38-.04-2.78-.18-4.17-1.14-.18-.12-.36-.23-.55-.32-.91-.44-1.96-.57-3.01-.52-.46.02-.91.08-1.35.15.48-.22.97-.42,1.48-.55.42-.12.85-.2,1.27-.22.89-.04,1.78.15,2.65.59,0,0,.02,0,.03.01h0c.22.11.44.23.65.35.57.31,1.16.64,1.82.84.3.09.61.15.92.2.73.11,1.47.11,2.19.11h.29c.13,0,.25,0,.39,0,.17,0,.35,0,.53,0,.49,0,.97.06,1.36.25.78.38,1.08,1.21,1.18,2.12Z"/>
            </g>
            <g>
              <path class="cls-4" d="m84.7,62.07c-.54.18-1.06.46-1.57.84-.67.5-1.23,1.11-1.77,1.69-.29.32-.59.64-.9.94-.86.83-1.69,1.37-2.52,1.65-.18.06-.38.12-.57.16-1.45.32-2.89.04-4.42-.25-.71-.13-1.44-.27-2.18-.35-.16-.01-.32-.03-.48-.05-.86-.1-1.83-.21-2.74-.05.05-.68.11-1.05.28-1.4.33-.67.81-1.19,1.39-1.52.32-.18.66-.3,1.02-.38.67-.15,1.41-.16,2.22-.17.17,0,.35,0,.53,0,.68-.01,1.39-.05,2.11-.19-.05.14-.08.29-.08.44,0,.68.55,1.23,1.23,1.23s1.23-.55,1.23-1.23c0-.44-.23-.82-.57-1.04.3-.14.6-.31.9-.51.22-.15.44-.27.69-.36h0c.76-.31,1.65-.38,2.53-.31,1.34.1,2.69.51,3.67.87Z"/>
              <path d="m80.74,59.89c-.42-.12-.85-.2-1.27-.22-.89-.04-1.78.15-2.65.59,0,0-.02,0-.03.01h0c-.22.11-.44.23-.65.35-.57.31-1.16.64-1.82.84-.3.09-.61.15-.92.2-.73.11-1.47.11-2.19.11h-.29c-.13,0-.25,0-.39,0-.17,0-.35,0-.53,0-.49,0-.97.06-1.36.25-.78.38-1.08,1.21-1.18,2.12.36-.51.81-.91,1.33-1.2.41-.23.83-.37,1.26-.47.76-.17,1.57-.18,2.4-.19.22,0,.45,0,.68-.01,1.38-.04,2.78-.18,4.17-1.14.18-.12.36-.23.55-.32.91-.44,1.96-.57,3.01-.52.46.02.91.08,1.35.15-.48-.22-.97-.42-1.48-.55Z"/>
              <path d="m86.95,60.23s-15.64-13.47-22.15,2.68c0,0,6.96-10.73,22.15-2.68Z"/>
              <path class="cls-3" d="m81.05,61.7c0,3.05-2.47,5.53-5.53,5.53-2.48,0-4.58-1.64-5.28-3.89.67-.15,1.41-.16,2.22-.17.17,0,.35,0,.53,0,.68-.01,1.39-.05,2.11-.19-.05.14-.08.29-.08.44,0,.68.55,1.23,1.23,1.23s1.23-.55,1.23-1.23c0-.44-.23-.82-.57-1.04.3-.14.6-.31.9-.51.22-.15.44-.27.69-.36h0c.76-.31,1.65-.38,2.53-.31.01.17.02.34.02.51Z"/>
              <path class="cls-6" d="m78.99,63.15c0,1.65-1.35,3-3,3s-2.99-1.33-3-2.98c.68-.01,1.39-.05,2.11-.19-.05.14-.08.29-.08.44,0,.68.55,1.23,1.23,1.23s1.23-.55,1.23-1.23c0-.44-.23-.82-.57-1.04.3-.14.6-.31.9-.51.22-.15.44-.27.69-.36h0c.31.47.49,1.04.49,1.65Z"/>
              <path d="m86.75,62.12c-.97-.97-2.21-1.57-3.43-2.15-.97-.47-1.99-.93-3.07-1.12-.25-.04-.49-.07-.74-.08-1.05-.05-2.09.18-3.1.68-.24.12-.48.25-.72.38-.55.3-1.07.59-1.64.76-.91.27-1.86.27-2.86.27h-.29c-.13,0-.25,0-.38,0-.16,0-.31,0-.48,0-.6,0-1.24.05-1.81.34-1.86.89-1.77,3.3-1.71,4.89v.28c.02.27.08,1.04.12,1.49.37-.21.77-.29.78-.29.84-.21,1.82-.1,2.75,0,.17.02.33.04.49.05.69.07,1.41.21,2.1.34,1.05.2,2.12.41,3.22.41.51,0,1.03-.05,1.56-.16.23-.05.45-.11.67-.18.96-.32,1.89-.93,2.85-1.85.33-.32.64-.65.94-.98.54-.58,1.04-1.13,1.65-1.58.99-.74,2.41-1.22,3.64-.84-.17-.23-.34-.46-.55-.66Zm-9.39,5.22c-1.45.32-2.89.04-4.42-.25-.71-.13-1.44-.27-2.18-.35-.16-.01-.32-.03-.48-.05-.86-.1-1.83-.21-2.74-.05.05-.68.11-1.05.28-1.4.33-.67.81-1.19,1.39-1.52.32-.18.66-.3,1.02-.38.67-.15,1.41-.16,2.22-.17.17,0,.35,0,.53,0,.68-.01,1.39-.05,2.11-.19-.05.14-.08.29-.08.44,0,.68.55,1.23,1.23,1.23s1.23-.55,1.23-1.23c0-.44-.23-.82-.57-1.04.3-.14.6-.31.9-.51.22-.15.44-.27.69-.36h0c.76-.31,1.65-.38,2.53-.31,1.34.1,2.69.51,3.67.87-.54.18-1.06.46-1.57.84-.67.5-1.23,1.11-1.77,1.69-.29.32-.59.64-.9.94-.86.83-1.69,1.37-2.52,1.65-.18.06-.38.12-.57.16Zm-8.74-5.33c.4-.19.88-.24,1.36-.25.18,0,.36,0,.53,0,.13,0,.26,0,.39,0h.29c.72,0,1.45,0,2.19-.11.31-.04.62-.11.92-.2.66-.2,1.25-.52,1.82-.84.21-.12.43-.24.65-.35h0s.02,0,.03-.01c.87-.44,1.76-.63,2.65-.59.42.02.85.1,1.27.22.5.14.99.34,1.48.55-.44-.08-.9-.13-1.35-.15-1.05-.05-2.1.08-3.01.52-.19.09-.38.2-.55.32-1.39.95-2.79,1.1-4.17,1.14-.22,0-.45,0-.68.01-.83,0-1.64.02-2.4.19-.43.09-.85.24-1.26.47-.52.29-.97.7-1.33,1.2.1-.92.4-1.75,1.18-2.12Z"/>
              <path class="cls-9" d="m82.22,60.44c-.44-.08-.9-.13-1.35-.15-1.05-.05-2.1.08-3.01.52-.19.09-.38.2-.55.32-1.39.95-2.79,1.1-4.17,1.14-.22,0-.45,0-.68.01-.83,0-1.64.02-2.4.19-.43.09-.85.24-1.26.47-.52.29-.97.7-1.33,1.2.1-.92.4-1.75,1.18-2.12.4-.19.88-.24,1.36-.25.18,0,.36,0,.53,0,.13,0,.26,0,.39,0h.29c.72,0,1.45,0,2.19-.11.31-.04.62-.11.92-.2.66-.2,1.25-.52,1.82-.84.21-.12.43-.24.65-.35h0s.02,0,.03-.01c.87-.44,1.76-.63,2.65-.59.42.02.85.1,1.27.22.5.14.99.34,1.48.55Z"/>
            </g>
          </g>
          <g>
            <path class="cls-6" d="m64.95,71.6c-.17.22-.4.39-.65.57-.27.21-.56.42-.78.72-.41.55-.61,1.27-.58,2.08.02.48.08,1.01.15,1.51-.02-.08-.05-.15-.08-.23-.25-.72-.51-1.66-.31-2.52.15-.69.64-1.15,1.16-1.63.16-.15.31-.29.47-.45.66-.68.87-1.45.59-2.17-.27-.71-.95-1.16-1.65-1.11-.67.05-1.3.59-1.51,1.3-.17.57-.02,1.1.43,1.45.31.25.7.34,1.06.28.34-.06.63-.26.81-.56.18-.3.25-.69.17-1-.05-.22-.18-.4-.37-.51-.21-.12-.46-.16-.7-.09-.21.06-.39.19-.5.38-.15.27-.13.72.15.96.09.08.24.07.31-.03.08-.09.07-.23-.03-.31-.09-.08-.11-.27-.04-.4.04-.08.12-.13.22-.16.12-.03.25-.02.35.04.08.05.14.13.17.24.05.2,0,.47-.12.66-.15.25-.36.33-.51.36-.24.04-.5-.03-.71-.19-.4-.31-.35-.74-.28-.97.16-.52.64-.94,1.12-.98.52-.04,1.01.3,1.21.83.28.74-.19,1.38-.5,1.7-.14.15-.3.29-.45.43-.55.51-1.11,1.04-1.29,1.86-.21.97.06,1.99.33,2.76.05.15.1.3.14.44-.15-.37-.32-.77-.53-1.22-1.18-2.61.16-3.45.21-3.48.11-.06.14-.2.08-.3-.04-.08-.14-.13-.23-.11-.06-.02-.23-.11-.48-.3-.38-.28-.59-.67-.61-1.1-.03-.74.34-1.44.99-1.89.62-.42,1.38-.5,2.02-.21.59.26,1.01.8,1.17,1.48.16.68.01,1.39-.4,1.9Z"/>
            <path d="m63.17,79.75s.08.07.13.07c-.05,0-.1-.04-.13-.07Z"/>
            <path d="m65.8,69.6c-.19-.81-.71-1.46-1.42-1.78-.79-.36-1.7-.26-2.45.24-.78.53-1.23,1.38-1.19,2.28.02.57.3,1.08.8,1.44.14.1.25.18.35.24-.43.47-1.06,1.61-.08,3.77,1.19,2.62,1.31,3.7,1.31,3.81,0,.05.02.11.06.15.04.04.08.06.13.07h.03s.04,0,.07-.01c.02,0,.04-.01.05-.03.03-.01.05-.04.06-.06,0-.01.02-.03.02-.05,0-.01.01-.03.01-.04.29-.97.13-2.09-.01-3.17-.07-.53-.13-1.03-.15-1.5-.02-.49.05-1.2.49-1.79.18-.25.43-.43.69-.63.25-.19.51-.38.73-.64.5-.61.68-1.47.49-2.28Zm-.84,2c-.17.22-.4.39-.65.57-.27.21-.56.42-.78.72-.41.55-.61,1.27-.58,2.08.02.48.08,1.01.15,1.51-.02-.08-.05-.15-.08-.23-.25-.72-.51-1.66-.31-2.52.15-.69.64-1.15,1.16-1.63.16-.15.31-.29.47-.45.66-.68.87-1.45.59-2.17-.27-.71-.95-1.16-1.65-1.11-.67.05-1.3.59-1.51,1.3-.17.57-.02,1.1.43,1.45.31.25.7.34,1.06.28.34-.06.63-.26.81-.56.18-.3.25-.69.17-1-.05-.22-.18-.4-.37-.51-.21-.12-.46-.16-.7-.09-.21.06-.39.19-.5.38-.15.27-.13.72.15.96.09.08.24.07.31-.03.08-.09.07-.23-.03-.31-.09-.08-.11-.27-.04-.4.04-.08.12-.13.22-.16.12-.03.25-.02.35.04.08.05.14.13.17.24.05.2,0,.47-.12.66-.15.25-.36.33-.51.36-.24.04-.5-.03-.71-.19-.4-.31-.35-.74-.28-.97.16-.52.64-.94,1.12-.98.52-.04,1.01.3,1.21.83.28.74-.19,1.38-.5,1.7-.14.15-.3.29-.45.43-.55.51-1.11,1.04-1.29,1.86-.21.97.06,1.99.33,2.76.05.15.1.3.14.44-.15-.37-.32-.77-.53-1.22-1.18-2.61.16-3.45.21-3.48.11-.06.14-.2.08-.3-.04-.08-.14-.13-.23-.11-.06-.02-.23-.11-.48-.3-.38-.28-.59-.67-.61-1.1-.03-.74.34-1.44.99-1.89.62-.42,1.38-.5,2.02-.21.59.26,1.01.8,1.17,1.48.16.68.01,1.39-.4,1.9Z"/>
          </g>
          <g>
            <circle cx="63.3" cy="56.86" r="2.87"/>
            <circle class="cls-6" cx="63.3" cy="56.86" r="2.57"/>
            <circle class="cls-7" cx="63.3" cy="56.86" r="1.86"/>
            <circle class="cls-1" cx="63.3" cy="56.86" r="1.02"/>
          </g>
        </g>
      </g>
    </g>
  </g>
</svg>