<?xml version="1.0" encoding="UTF-8"?>
<svg id="Layer_2" data-name="Layer 2" xmlns="http://www.w3.org/2000/svg" viewBox="0 0 526.26 267.01">
  <defs>
    <style>
      .cls-1 {
        fill: #fff;
      }

      .cls-2 {
        fill: #e61e25;
      }

      .cls-3 {
        fill: #f2fafb;
      }

      .cls-4 {
        fill: #e11f26;
      }

      .cls-5 {
        fill: #fde100;
      }

      .cls-6 {
        fill: #7f7f7f;
      }
    </style>
  </defs>
  <g id="Layer_1-2" data-name="Layer 1">
    <g>
      <g>
        <g>
          <path class="cls-1" d="m44.65,235.45v-35.95l-14.47,35.95h-4.77l-14.47-35.95v35.95H0v-51.35h15.32l12.47,31.03,12.47-31.03h15.4v51.35h-11.01Z"/>
          <path class="cls-1" d="m80.14,235.45v-21.02l-19.78-30.33h12.47l12.78,20.63,12.63-20.63h12.47l-19.63,30.33v21.02h-10.93Z"/>
          <path class="cls-1" d="m110.47,228.21l5.93-8.31c3.62,3.77,9.24,6.93,16.32,6.93,6,0,8.93-2.77,8.93-5.7,0-9.08-29.56-2.85-29.56-22.17,0-8.55,7.39-15.63,19.48-15.63,8.16,0,14.93,2.46,20.02,7.16l-6.08,8.01c-4.16-3.85-9.7-5.62-14.93-5.62-4.7,0-7.31,2.08-7.31,5.16,0,8.16,29.48,2.69,29.48,21.86,0,9.39-6.7,16.47-20.55,16.47-9.85,0-16.94-3.31-21.71-8.16Z"/>
          <path class="cls-1" d="m170.98,235.45v-41.72h-15.01v-9.62h40.96v9.62h-14.93v41.72h-11.01Z"/>
          <path class="cls-1" d="m203.93,235.45v-51.35h10.93v51.35h-10.93Z"/>
          <path class="cls-1" d="m222.56,209.81c0-15.78,11.93-26.56,27.33-26.56,11.32,0,17.86,6.16,21.48,12.55l-9.39,4.62c-2.16-4.16-6.78-7.47-12.09-7.47-9.31,0-16.09,7.16-16.09,16.86s6.78,16.86,16.09,16.86c5.31,0,9.93-3.23,12.09-7.47l9.39,4.54c-3.7,6.39-10.16,12.63-21.48,12.63-15.4,0-27.33-10.78-27.33-26.56Z"/>
          <path class="cls-1" d="m333.03,235.45l-24.48-33.49v33.49h-10.93v-51.35h11.24l23.79,32.26v-32.26h10.93v51.35h-10.55Z"/>
          <path class="cls-1" d="m353.74,235.45v-51.35h36.34v9.62h-25.41v10.85h24.87v9.62h-24.87v11.62h25.41v9.62h-36.34Z"/>
          <path class="cls-1" d="m398.62,235.45v-51.35h24.02c11.16,0,17.24,7.54,17.24,16.55s-6.16,16.55-17.24,16.55h-13.09v18.25h-10.93Zm30.1-34.8c0-4.31-3.23-6.93-7.54-6.93h-11.62v13.86h11.62c4.31,0,7.54-2.69,7.54-6.93Z"/>
          <path class="cls-1" d="m476.37,235.45l-3.16-8.7h-22.02l-3.23,8.7h-12.47l19.86-51.35h13.7l19.79,51.35h-12.47Zm-14.17-40.42l-8.01,22.09h16.01l-8.01-22.09Z"/>
          <path class="cls-1" d="m493.61,235.45v-51.35h10.93v41.73h21.71v9.62h-32.64Z"/>
        </g>
        <g>
          <path class="cls-1" d="m17.69,266.61l-1.37-3.76H6.8l-1.4,3.76H0l8.59-22.22h5.93l8.56,22.22h-5.4Zm-6.13-17.49l-3.46,9.56h6.93l-3.46-9.56Z"/>
          <path class="cls-1" d="m66.45,266.61v-22.22h8.76c6.96,0,11.79,4.43,11.79,11.13s-4.83,11.09-11.79,11.09h-8.76Zm15.72-11.09c0-3.93-2.4-6.96-6.96-6.96h-4.03v13.89h4.03c4.4,0,6.96-3.16,6.96-6.93Z"/>
          <path class="cls-1" d="m137.24,266.61l-8.59-22.22h5.4l6.16,17.09,6.13-17.09h5.4l-8.56,22.22h-5.93Z"/>
          <path class="cls-1" d="m195.09,266.61v-22.22h15.72v4.16h-10.99v4.7h10.76v4.16h-10.76v5.03h10.99v4.16h-15.72Z"/>
          <path class="cls-1" d="m271.14,266.61l-10.59-14.49v14.49h-4.73v-22.22h4.86l10.29,13.96v-13.96h4.73v22.22h-4.56Z"/>
          <path class="cls-1" d="m326.53,266.61v-18.05h-6.5v-4.16h17.72v4.16h-6.46v18.05h-4.76Z"/>
          <path class="cls-1" d="m382.09,257.75v-13.36h4.8v13.19c0,3.1,1.8,5.23,5.23,5.23s5.2-2.13,5.2-5.23v-13.19h4.83v13.32c0,5.53-3.26,9.29-10.03,9.29s-10.03-3.8-10.03-9.26Z"/>
          <path class="cls-1" d="m460.37,266.61l-4.36-7.89h-3.46v7.89h-4.73v-22.22h10.39c4.63,0,7.46,3.03,7.46,7.16s-2.46,6.03-4.86,6.6l5,8.46h-5.43Zm.47-15.06c0-1.86-1.43-3-3.33-3h-4.96v6h4.96c1.9,0,3.33-1.13,3.33-3Z"/>
          <path class="cls-1" d="m510.53,266.61v-22.22h15.72v4.16h-10.99v4.7h10.76v4.16h-10.76v5.03h10.99v4.16h-15.72Z"/>
        </g>
      </g>
      <g>
        <path class="cls-1" d="m312.16,103.79c-1.25,4.04-2.95,8.09-5.09,12.09l-5.72-5.82c-1.63-1.65-3.68-2.7-5.93-3.04,1.21-2.51,2.21-5.01,2.98-7.5,1.55-4.97,2.19-9.89,1.93-14.63-.52-9.2-4.57-17.85-11.7-24.99-6.82-6.81-15.87-10.56-25.5-10.56s-18.68,3.75-25.5,10.56c-7.14,7.14-11.18,15.79-11.7,24.99-.26,4.73.38,9.65,1.93,14.63.77,2.49,1.77,5,2.98,7.5-2.23.34-4.29,1.39-5.9,3.04l-5.74,5.83c-2.14-4.01-3.84-8.06-5.1-12.1-2.06-6.62-2.91-13.24-2.55-19.69.71-12.8,6.2-24.69,15.9-34.38,9.53-9.53,22.2-14.78,35.68-14.78s26.17,5.25,35.68,14.78c9.69,9.68,15.18,21.58,15.9,34.38.37,6.45-.49,13.08-2.55,19.69Z"/>
        <path class="cls-1" d="m349.6,86.48c0,19.66-6.58,38.44-18.67,53.67l-10.19-10.37c9.38-12.42,14.45-27.52,14.45-43.3,0-39.73-32.33-72.06-72.06-72.06s-72.06,32.33-72.06,72.06c0,15.78,5.08,30.88,14.46,43.3l-10.2,10.37c-12.1-15.22-18.67-34-18.67-53.67,0-23.1,8.99-44.81,25.33-61.15S240.03,0,263.13,0s44.82,9,61.15,25.33c16.34,16.34,25.33,38.05,25.33,61.15Z"/>
        <path class="cls-1" d="m344.31,168.72h-14.91l-34.39-34.95c-10.33,13.64-24.84,31.47-25.02,31.69-1.68,2.08-4.18,3.26-6.86,3.26s-5.17-1.18-6.86-3.26c-.18-.22-14.69-18.07-25.02-31.7l-34.39,34.96h-14.9c-1.97,0-2.96-2.38-1.59-3.78l19.35-19.67,10.12-10.28,12.89-13.1,7-7.11c.77-.78,1.76-1.15,2.74-1.15,1.22,0,2.43.58,3.19,1.69l.03.04c1.45,2.15,3.46,4.92,5.79,8.01,6.81,9.09,16.23,20.91,21.66,27.66,5.42-6.74,14.84-18.56,21.66-27.65,2.32-3.09,4.34-5.87,5.8-8.02l.04-.05c.75-1.12,1.96-1.68,3.18-1.68.97,0,1.94.36,2.7,1.11.02,0,.03.02.05.04l6.98,7.12,12.89,13.1,10.12,10.28,19.36,19.67c1.38,1.4.38,3.78-1.59,3.78Z"/>
        <g>
          <g>
            <g>
              <path class="cls-4" d="m257.32,91.04c-1.24-.21-2.56-.06-3.74.07-.23.02-.45.05-.66.07-1,.1-2,.29-2.98.48-2.08.4-4.05.78-6.04.34-.26-.05-.53-.13-.78-.21-1.14-.38-2.26-1.12-3.44-2.25-.42-.41-.84-.86-1.23-1.29-.74-.79-1.5-1.63-2.42-2.31-.69-.51-1.41-.9-2.14-1.14,1.34-.49,3.19-1.05,5.02-1.19,1.21-.09,2.41,0,3.46.43h0c.34.13.64.29.94.49.41.28.82.51,1.23.7-.46.3-.78.82-.78,1.42,0,.92.75,1.67,1.67,1.67s1.68-.75,1.68-1.67c0-.21-.04-.42-.12-.6.99.19,1.96.24,2.88.26.24,0,.48.01.72.01,1.11.01,2.12.02,3.04.23.49.11.95.27,1.39.51.79.45,1.45,1.16,1.9,2.08.23.48.31.98.38,1.91Z"/>
              <path d="m255.85,84.72c-.54-.26-1.2-.33-1.86-.34-.24,0-.49,0-.73,0-.18,0-.35,0-.53,0h-.4c-.98,0-1.99,0-2.99-.15-.42-.06-.84-.15-1.26-.27-.9-.27-1.71-.71-2.49-1.14-.29-.16-.59-.33-.89-.48h0s-.02-.01-.04-.02c-1.19-.6-2.4-.87-3.62-.81-.58.03-1.16.14-1.74.31-.68.19-1.36.46-2.02.76.6-.1,1.23-.18,1.85-.21,1.44-.07,2.87.1,4.12.71.26.13.51.27.76.44,1.9,1.3,3.82,1.5,5.7,1.55.31.01.62.01.92.02,1.14.01,2.24.02,3.28.26.59.13,1.17.32,1.72.64.71.4,1.33.95,1.82,1.64-.13-1.25-.54-2.39-1.61-2.9Z"/>
              <path class="cls-1" d="m256.38,83.62c-.78-.38-1.65-.46-2.47-.46-.23,0-.44,0-.65,0-.18,0-.34,0-.51,0h-.4c-1.37,0-2.66,0-3.91-.37-.78-.23-1.48-.62-2.24-1.04-.32-.18-.65-.36-.98-.53-1.38-.69-2.8-1.01-4.23-.93-.34.02-.68.05-1.01.12-1.47.26-2.87.89-4.19,1.53-1.66.79-3.36,1.61-4.69,2.93-.27.27-.51.59-.74.9,1.67-.52,3.61.14,4.97,1.15.83.62,1.52,1.36,2.25,2.16.41.45.84.9,1.29,1.34,1.31,1.26,2.58,2.09,3.89,2.53.29.1.6.18.91.25.71.15,1.42.22,2.13.22,1.5,0,2.96-.28,4.4-.56.94-.18,1.92-.37,2.87-.46.22-.02.45-.05.67-.07,1.28-.14,2.61-.29,3.76,0,.01,0,.57.12,1.07.4.05-.61.14-1.66.15-2.03v-.38c.09-2.17.21-5.46-2.33-6.68Zm-2.79,7.49c-.23.02-.45.05-.66.07-1,.1-2,.29-2.98.48-2.08.4-4.05.78-6.04.34-.26-.05-.53-.13-.78-.21-1.14-.38-2.26-1.12-3.44-2.25-.42-.41-.84-.86-1.23-1.29-.74-.79-1.5-1.63-2.42-2.31-.69-.51-1.41-.9-2.14-1.14,1.34-.49,3.19-1.05,5.02-1.19,1.21-.09,2.41,0,3.46.43h0c.34.13.64.29.94.49.41.28.82.51,1.23.7-.46.3-.78.82-.78,1.42,0,.92.75,1.67,1.67,1.67s1.68-.75,1.68-1.67c0-.21-.04-.42-.12-.6.99.19,1.96.24,2.88.26.24,0,.48.01.72.01,1.11.01,2.12.02,3.04.23.49.11.95.27,1.39.51.79.45,1.45,1.16,1.9,2.08.23.48.31.98.38,1.91-1.24-.21-2.56-.06-3.74.07Zm2.05-5.13c-.56-.31-1.13-.51-1.72-.64-1.04-.23-2.14-.24-3.28-.26-.31,0-.62,0-.92-.02-1.88-.05-3.8-.25-5.7-1.55-.24-.16-.49-.31-.76-.44-1.25-.6-2.68-.78-4.12-.71-.62.02-1.25.1-1.85.21.66-.3,1.33-.57,2.02-.76.57-.16,1.15-.27,1.74-.31,1.22-.06,2.44.21,3.62.81.01,0,.02.01.04.02h0c.31.15.6.32.89.48.78.43,1.59.87,2.49,1.14.42.12.84.21,1.26.27,1,.15,2,.15,2.99.15h.4c.18,0,.35,0,.53,0,.24,0,.48,0,.73,0,.67,0,1.32.08,1.86.34,1.06.51,1.47,1.65,1.61,2.9-.49-.69-1.11-1.25-1.82-1.64Z"/>
              <path class="cls-1" d="m230.82,82.28s21.37-18.41,30.26,3.67c0,0-9.51-14.66-30.26-3.67Z"/>
              <path class="cls-3" d="m253.65,86.54c-.96,3.07-3.82,5.31-7.22,5.31-4.17,0-7.55-3.38-7.55-7.55,0-.23.01-.46.03-.69,1.21-.09,2.41,0,3.46.43h0c.34.13.64.29.94.49.41.28.82.51,1.23.7-.46.3-.78.82-.78,1.42,0,.92.75,1.67,1.67,1.67s1.68-.75,1.68-1.67c0-.21-.04-.42-.12-.6.99.19,1.96.24,2.88.26.24,0,.48.01.72.01,1.11.01,2.12.02,3.04.23Z"/>
              <path class="cls-5" d="m249.9,86.3c-.01,2.25-1.84,4.07-4.09,4.07s-4.1-1.83-4.1-4.09c0-.83.24-1.6.67-2.25h0c.34.13.64.29.94.49.41.28.82.51,1.23.7-.46.3-.78.82-.78,1.42,0,.92.75,1.67,1.67,1.67s1.68-.75,1.68-1.67c0-.21-.04-.42-.12-.6.99.19,1.96.24,2.88.26Z"/>
              <path class="cls-6" d="m257.46,87.63c-.49-.69-1.11-1.25-1.82-1.64-.56-.31-1.13-.51-1.72-.64-1.04-.23-2.14-.24-3.28-.26-.31,0-.62,0-.92-.02-1.88-.05-3.8-.25-5.7-1.55-.24-.16-.49-.31-.76-.44-1.25-.6-2.68-.78-4.12-.71-.62.02-1.25.1-1.85.21.66-.3,1.33-.57,2.02-.76.57-.16,1.15-.27,1.74-.31,1.22-.06,2.44.21,3.62.81.01,0,.02.01.04.02h0c.31.15.6.32.89.48.78.43,1.59.87,2.49,1.14.42.12.84.21,1.26.27,1,.15,2,.15,2.99.15h.4c.18,0,.35,0,.53,0,.24,0,.48,0,.73,0,.67,0,1.32.08,1.86.34,1.06.51,1.47,1.65,1.61,2.9Z"/>
            </g>
            <g>
              <path class="cls-4" d="m292.37,84.8c-.73.24-1.45.63-2.14,1.14-.92.68-1.68,1.52-2.42,2.31-.4.43-.81.88-1.23,1.29-1.18,1.13-2.3,1.87-3.44,2.25-.25.09-.51.16-.78.21-1.99.43-3.95.06-6.04-.34-.97-.18-1.97-.37-2.98-.48-.21-.02-.43-.04-.66-.07-1.18-.13-2.5-.28-3.74-.07.07-.93.15-1.43.38-1.91.45-.92,1.11-1.63,1.9-2.08.44-.24.9-.4,1.39-.51.92-.2,1.92-.21,3.04-.23.24,0,.48,0,.72-.01.92-.02,1.89-.07,2.88-.26-.07.19-.12.39-.12.6,0,.92.75,1.67,1.68,1.67s1.67-.75,1.67-1.67c0-.6-.31-1.12-.78-1.42.41-.19.82-.42,1.23-.7.3-.2.6-.37.94-.49h0c1.04-.42,2.25-.52,3.46-.43,1.83.14,3.68.7,5.02,1.19Z"/>
              <path d="m286.97,81.82c-.57-.16-1.15-.27-1.74-.31-1.22-.06-2.44.21-3.62.81-.01,0-.02.01-.04.02h0c-.31.15-.6.32-.89.48-.78.43-1.59.87-2.49,1.14-.42.12-.84.21-1.26.27-1,.15-2,.15-2.99.15h-.4c-.18,0-.35,0-.53,0-.24,0-.48,0-.73,0-.67,0-1.32.08-1.86.34-1.06.51-1.47,1.65-1.61,2.9.49-.69,1.11-1.25,1.82-1.64.56-.31,1.13-.51,1.72-.64,1.04-.23,2.14-.24,3.28-.26.31,0,.62,0,.92-.02,1.88-.05,3.8-.25,5.7-1.55.24-.16.49-.31.76-.44,1.25-.6,2.68-.78,4.12-.71.62.02,1.25.1,1.85.21-.66-.3-1.33-.57-2.02-.76Z"/>
              <path class="cls-1" d="m295.44,82.28s-21.37-18.41-30.26,3.67c0,0,9.51-14.66,30.26-3.67Z"/>
              <path class="cls-3" d="m287.38,84.3c0,4.17-3.38,7.55-7.55,7.55-3.39,0-6.26-2.24-7.22-5.31.92-.2,1.92-.21,3.04-.23.24,0,.48,0,.72-.01.92-.02,1.89-.07,2.88-.26-.07.19-.12.39-.12.6,0,.92.75,1.67,1.68,1.67s1.67-.75,1.67-1.67c0-.6-.31-1.12-.78-1.42.41-.19.82-.42,1.23-.7.3-.2.6-.37.94-.49h0c1.04-.42,2.25-.52,3.46-.43.02.23.03.46.03.69Z"/>
              <path class="cls-5" d="m284.56,86.28c0,2.26-1.84,4.09-4.1,4.09s-4.08-1.82-4.09-4.07c.92-.02,1.89-.07,2.88-.26-.07.19-.12.39-.12.6,0,.92.75,1.67,1.68,1.67s1.67-.75,1.67-1.67c0-.6-.31-1.12-.78-1.42.41-.19.82-.42,1.23-.7.3-.2.6-.37.94-.49h0c.43.65.67,1.42.67,2.25Z"/>
              <path class="cls-1" d="m295.18,84.87c-1.33-1.32-3.02-2.14-4.68-2.93-1.33-.64-2.72-1.26-4.19-1.53-.34-.06-.67-.1-1.01-.12-1.43-.07-2.85.24-4.23.93-.33.16-.65.35-.98.53-.76.42-1.47.81-2.24,1.04-1.25.37-2.54.37-3.91.37h-.4c-.17,0-.34,0-.51,0-.21,0-.43,0-.65,0-.82,0-1.69.07-2.47.46-2.54,1.22-2.42,4.51-2.34,6.68v.38c.02.37.12,1.42.16,2.03.5-.28,1.06-.4,1.07-.4,1.15-.29,2.48-.14,3.76,0,.23.02.45.05.67.07.95.1,1.92.28,2.87.46,1.44.27,2.9.56,4.4.56.7,0,1.41-.07,2.13-.22.31-.07.62-.15.91-.25,1.31-.44,2.58-1.27,3.89-2.53.45-.43.88-.89,1.29-1.34.73-.79,1.42-1.54,2.25-2.16,1.36-1.01,3.29-1.67,4.97-1.15-.23-.32-.46-.63-.75-.9Zm-12.82,7.13c-1.99.43-3.95.06-6.04-.34-.97-.18-1.97-.37-2.98-.48-.21-.02-.43-.04-.66-.07-1.18-.13-2.5-.28-3.74-.07.07-.93.15-1.43.38-1.91.45-.92,1.11-1.63,1.9-2.08.44-.24.9-.4,1.39-.51.92-.2,1.92-.21,3.04-.23.24,0,.48,0,.72-.01.92-.02,1.89-.07,2.88-.26-.07.19-.12.39-.12.6,0,.92.75,1.67,1.68,1.67s1.67-.75,1.67-1.67c0-.6-.31-1.12-.78-1.42.41-.19.82-.42,1.23-.7.3-.2.6-.37.94-.49h0c1.04-.42,2.25-.52,3.46-.43,1.83.14,3.68.7,5.02,1.19-.73.24-1.45.63-2.14,1.14-.92.68-1.68,1.52-2.42,2.31-.4.43-.81.88-1.23,1.29-1.18,1.13-2.3,1.87-3.44,2.25-.25.09-.51.16-.78.21Zm-11.94-7.28c.54-.26,1.2-.33,1.86-.34.24,0,.49,0,.73,0,.18,0,.35,0,.53,0h.4c.98,0,1.99,0,2.99-.15.42-.06.84-.15,1.26-.27.9-.27,1.71-.71,2.49-1.14.29-.16.59-.33.89-.48h0s.02-.01.04-.02c1.19-.6,2.4-.87,3.62-.81.58.03,1.16.14,1.74.31.68.19,1.36.46,2.02.76-.6-.1-1.23-.18-1.85-.21-1.44-.07-2.87.1-4.12.71-.26.13-.51.27-.76.44-1.9,1.3-3.82,1.5-5.7,1.55-.31.01-.62.01-.92.02-1.14.01-2.24.02-3.28.26-.59.13-1.17.32-1.72.64-.71.4-1.33.95-1.82,1.64.13-1.25.54-2.39,1.61-2.9Z"/>
              <path class="cls-6" d="m288.98,82.58c-.6-.1-1.23-.18-1.85-.21-1.44-.07-2.87.1-4.12.71-.26.13-.51.27-.76.44-1.9,1.3-3.82,1.5-5.7,1.55-.31.01-.62.01-.92.02-1.14.01-2.24.02-3.28.26-.59.13-1.17.32-1.72.64-.71.4-1.33.95-1.82,1.64.13-1.25.54-2.39,1.61-2.9.54-.26,1.2-.33,1.86-.34.24,0,.49,0,.73,0,.18,0,.35,0,.53,0h.4c.98,0,1.99,0,2.99-.15.42-.06.84-.15,1.26-.27.9-.27,1.71-.71,2.49-1.14.29-.16.59-.33.89-.48h0s.02-.01.04-.02c1.19-.6,2.4-.87,3.62-.81.58.03,1.16.14,1.74.31.68.19,1.36.46,2.02.76Z"/>
            </g>
          </g>
          <g>
            <path class="cls-5" d="m265.4,97.83c-.24.3-.55.53-.89.78-.37.29-.76.57-1.07.98-.56.75-.83,1.74-.79,2.84.02.66.12,1.37.21,2.06-.03-.1-.07-.21-.1-.32-.34-.98-.69-2.27-.43-3.45.2-.94.87-1.57,1.58-2.23.21-.2.43-.4.64-.61.9-.93,1.19-1.99.81-2.97-.37-.97-1.3-1.59-2.26-1.52-.91.07-1.78.81-2.06,1.78-.24.78-.02,1.5.59,1.98.42.34.96.47,1.45.38.46-.09.86-.35,1.11-.77.24-.4.34-.94.23-1.37-.07-.31-.25-.55-.5-.7-.28-.16-.62-.21-.95-.13-.29.08-.54.26-.68.52-.21.37-.18.99.2,1.31.13.1.32.09.43-.04.11-.13.09-.32-.04-.43-.12-.1-.15-.37-.05-.54.05-.1.16-.18.3-.22.16-.04.34-.02.48.06.12.07.19.17.23.32.07.27,0,.64-.16.9-.2.34-.49.45-.7.49-.32.06-.68-.04-.97-.26-.55-.43-.48-1.01-.38-1.33.22-.71.87-1.29,1.53-1.34.71-.05,1.37.42,1.65,1.13.38,1.01-.26,1.89-.68,2.32-.2.21-.4.4-.61.59-.75.7-1.52,1.42-1.77,2.55-.29,1.33.09,2.71.45,3.77.07.2.13.4.19.6-.2-.5-.44-1.06-.72-1.67-1.61-3.57.21-4.71.29-4.76.15-.08.2-.27.11-.42-.06-.12-.2-.17-.32-.15-.09-.03-.32-.15-.66-.4-.51-.38-.81-.91-.84-1.5-.04-1.01.46-1.97,1.36-2.58.85-.57,1.88-.68,2.76-.28.8.36,1.38,1.09,1.59,2.02.22.93.02,1.9-.55,2.59Z"/>
            <path d="m262.96,108.96c.04.05.11.09.18.1-.07-.01-.13-.05-.18-.1Z"/>
            <path class="cls-1" d="m266.54,95.09c-.26-1.11-.97-1.99-1.94-2.43-1.08-.49-2.33-.36-3.35.33-1.07.72-1.67,1.89-1.63,3.11.03.78.42,1.47,1.09,1.96.19.14.35.25.48.33-.59.65-1.44,2.21-.1,5.16,1.63,3.57,1.78,5.05,1.8,5.21,0,.07.03.15.08.21.05.05.11.09.18.1h.04s.06,0,.09-.02c.03,0,.05-.02.07-.04.04-.02.07-.05.09-.09.01-.02.02-.04.03-.07.01-.02.02-.04.02-.06.39-1.33.18-2.86-.02-4.34-.09-.73-.18-1.41-.21-2.05-.03-.67.07-1.64.67-2.45.25-.34.59-.59.95-.86.35-.26.7-.53,1-.88.68-.84.93-2,.67-3.12Zm-1.15,2.73c-.24.3-.55.53-.89.78-.37.29-.76.57-1.07.98-.56.75-.83,1.74-.79,2.84.02.66.12,1.37.21,2.06-.03-.1-.07-.21-.1-.32-.34-.98-.69-2.27-.43-3.45.2-.94.87-1.57,1.58-2.23.21-.2.43-.4.64-.61.9-.93,1.19-1.99.81-2.97-.37-.97-1.3-1.59-2.26-1.52-.91.07-1.78.81-2.06,1.78-.24.78-.02,1.5.59,1.98.42.34.96.47,1.45.38.46-.09.86-.35,1.11-.77.24-.4.34-.94.23-1.37-.07-.31-.25-.55-.5-.7-.28-.16-.62-.21-.95-.13-.29.08-.54.26-.68.52-.21.37-.18.99.2,1.31.13.1.32.09.43-.04.11-.13.09-.32-.04-.43-.12-.1-.15-.37-.05-.54.05-.1.16-.18.3-.22.16-.04.34-.02.48.06.12.07.19.17.23.32.07.27,0,.64-.16.9-.2.34-.49.45-.7.49-.32.06-.68-.04-.97-.26-.55-.43-.48-1.01-.38-1.33.22-.71.87-1.29,1.53-1.34.71-.05,1.37.42,1.65,1.13.38,1.01-.26,1.89-.68,2.32-.2.21-.4.4-.61.59-.75.7-1.52,1.42-1.77,2.55-.29,1.33.09,2.71.45,3.77.07.2.13.4.19.6-.2-.5-.44-1.06-.72-1.67-1.61-3.57.21-4.71.29-4.76.15-.08.2-.27.11-.42-.06-.12-.2-.17-.32-.15-.09-.03-.32-.15-.66-.4-.51-.38-.81-.91-.84-1.5-.04-1.01.46-1.97,1.36-2.58.85-.57,1.88-.68,2.76-.28.8.36,1.38,1.09,1.59,2.02.22.93.02,1.9-.55,2.59Z"/>
          </g>
          <g>
            <circle class="cls-1" cx="263.13" cy="77.68" r="3.92"/>
            <circle class="cls-5" cx="263.13" cy="77.68" r="3.52"/>
            <circle class="cls-1" cx="263.13" cy="77.68" r="2.55"/>
            <circle class="cls-2" cx="263.13" cy="77.68" r="1.4"/>
          </g>
        </g>
      </g>
    </g>
  </g>
</svg>